<svg aria-hidden="true" style="width:0;height:0;position:absolute;overflow:hidden" xmlns="http://www.w3.org/2000/svg"><defs><symbol id="icon-close" viewBox="0 0 20 20"><path d="M10 8.586 2.929 1.515 1.515 2.929 8.586 10l-7.071 7.071 1.414 1.414L10 11.414l7.071 7.071 1.414-1.414L11.414 10l7.071-7.071-1.414-1.414L10 8.586z"/></symbol><symbol id="icon-arrow-left" viewBox="0 0 32 32"><path stroke-linejoin="round" stroke-linecap="round" stroke-width="2.667" d="M25.333 16H6.666M16 25.333 6.667 16 16 6.667"/></symbol><symbol id="icon-arrow-right" viewBox="0 0 32 32"><path stroke-linejoin="round" stroke-linecap="round" stroke-width="2.667" d="M6.667 16h18.667M16 25.333 25.333 16 16 6.667"/></symbol><symbol id="icon-film-logo" viewBox="0 0 32 32"><path stroke-linejoin="round" stroke-linecap="round" stroke-width="2.667" d="M26.427 3.606H5.574c-1.605 0-2.907 1.239-2.907 2.768V26.23c0 1.529 1.301 2.768 2.907 2.768h20.853c1.605 0 2.907-1.239 2.907-2.768V6.374c0-1.529-1.301-2.768-2.907-2.768zM9.333 3.606v25.391M22.667 3.606v25.391M2.667 16.301h26.667M2.667 9.954h6.667M2.667 22.649h6.667M22.667 22.649h6.667M22.667 9.954h6.667"/></symbol><symbol id="icon-heart" viewBox="0 0 34 32"><path d="m17.231 31.705-2.412-2.412C5.859 21.367.001 16.025.001 9.478.001 4.136 4.136.001 9.478.001c2.929 0 5.858 1.378 7.754 3.618 1.895-2.24 4.825-3.618 7.754-3.618 5.342 0 9.477 4.135 9.477 9.477 0 6.548-5.858 11.889-14.818 19.815l-2.412 2.412z"/></symbol><symbol id="icon-moon" viewBox="0 0 23 28"><path d="M19.719 20.359c-.562.094-1.141.141-1.719.141-5.797 0-10.5-4.703-10.5-10.5 0-1.984.578-3.922 1.625-5.578A9.952 9.952 0 0 0 2 14c0 5.516 4.484 10 10 10 3.016 0 5.844-1.375 7.719-3.641zm3.172-1.328A12.035 12.035 0 0 1 12 26C5.391 26 0 20.609 0 14A11.95 11.95 0 0 1 11.547 2.016a.976.976 0 0 1 .953.609c.172.391.063.844-.234 1.125A8.372 8.372 0 0 0 9.5 10c0 4.688 3.813 8.5 8.5 8.5a8.352 8.352 0 0 0 3.563-.797 1 1 0 0 1 1.328 1.328z"/></symbol><symbol id="icon-sun" viewBox="0 0 28 28"><path d="M23 14c0-4.969-4.031-9-9-9s-9 4.031-9 9 4.031 9 9 9 9-4.031 9-9zm4.312 4.328a.482.482 0 0 1-.313.313l-4.562 1.5v4.781a.517.517 0 0 1-.203.406.475.475 0 0 1-.453.063l-4.562-1.469-2.812 3.875c-.094.125-.25.203-.406.203s-.313-.078-.406-.203l-2.812-3.875-4.562 1.469a.472.472 0 0 1-.453-.063.518.518 0 0 1-.203-.406v-4.781l-4.562-1.5c-.141-.047-.266-.156-.313-.313s-.031-.328.063-.453L3.565 14 .753 10.125C.659 9.984.644 9.828.69 9.672s.172-.266.313-.313l4.562-1.5V3.078c0-.156.078-.313.203-.406a.475.475 0 0 1 .453-.063l4.562 1.469L13.595.203c.187-.25.625-.25.812 0l2.812 3.875 4.562-1.469a.472.472 0 0 1 .453.063c.125.094.203.25.203.406v4.781l4.562 1.5c.141.047.266.156.313.313s.031.313-.063.453L24.437 14l2.812 3.875a.514.514 0 0 1 .063.453z"/></symbol><symbol id="card-btn-close" viewBox="0 0 32 32"><path stroke-width="2.133" d="m8.533 8.533 14.933 14.933m-14.933.001L23.466 8.534"/></symbol><symbol id="footer-heart" viewBox="0 0 32 32"><path d="m16 30.583-2.24-2.24C5.44 20.983 0 16.023 0 9.943c0-4.96 3.84-8.8 8.8-8.8 2.72 0 5.44 1.28 7.2 3.36 1.76-2.08 4.48-3.36 7.2-3.36 4.96 0 8.8 3.84 8.8 8.8 0 6.08-5.44 11.04-13.76 18.4L16 30.583z"/></symbol><symbol id="header-autorization" viewBox="0 0 32 32"><path d="M16 2c3.243 0 5.881 2.615 5.881 5.83S19.243 13.66 16 13.66c-3.243 0-5.881-2.615-5.881-5.83S12.757 2 16 2zm0-2c-4.353 0-7.881 3.506-7.881 7.83s3.529 7.83 7.881 7.83 7.881-3.506 7.881-7.83S20.352 0 16 0zm4.935 19.444c.593.012 5.135.25 5.135 4.596V30H5.93v-5.96c0-4.268 4.289-4.578 5.116-4.596h9.889zm.019-2h-9.907s-7.116.079-7.116 6.596V32h24.14v-7.96c0-6.478-7.116-6.596-7.116-6.596z"/></symbol><symbol id="header-logo" viewBox="0 0 32 32"><path stroke-linejoin="round" stroke-linecap="round" stroke-width="2.667" d="M26.427 2.667H5.574a2.907 2.907 0 0 0-2.907 2.907v20.853a2.907 2.907 0 0 0 2.907 2.907h20.853a2.907 2.907 0 0 0 2.907-2.907V5.574a2.907 2.907 0 0 0-2.907-2.907zm-17.094 0v26.667M22.667 2.667v26.667M2.667 16h26.667M2.667 9.333h6.667M2.667 22.667h6.667m13.333 0h6.667M22.667 9.333h6.667"/></symbol><symbol id="header-search" viewBox="0 0 32 32"><path stroke-linejoin="round" stroke-linecap="round" stroke-width="2.667" d="M14.667 25.333c5.891 0 10.667-4.776 10.667-10.667S20.558 3.999 14.667 3.999 4 8.775 4 14.666s4.776 10.667 10.667 10.667zM28 28l-5.8-5.8"/></symbol><symbol id="pag-btn-left" viewBox="0 0 32 32"><path stroke-linejoin="round" stroke-linecap="round" stroke-width="2.666" d="M25.334 16H6.666M16 25.334 6.666 16 16 6.666"/></symbol><symbol id="pag-btn-right" viewBox="0 0 32 32"><path stroke-linejoin="round" stroke-linecap="round" stroke-width="2.666" d="M6.666 16h18.668M16 25.334 25.334 16 16 6.666"/></symbol><symbol id="icon-autorization" viewBox="0 0 32 32"><path d="M16 .001C7.164.001 0 7.164 0 16s7.164 15.999 16 15.999c8.837 0 16-7.163 16-15.999S24.837.001 16 .001zm0 4.784a5.292 5.292 0 1 1 .001 10.585A5.292 5.292 0 0 1 16 4.785zm-.004 23.031a11.738 11.738 0 0 1-7.646-2.82 2.255 2.255 0 0 1-.791-1.714c0-2.964 2.399-5.336 5.363-5.336h6.158a5.33 5.33 0 0 1 5.355 5.336c0 .659-.288 1.285-.791 1.713a11.74 11.74 0 0 1-7.647 2.82z"/></symbol><symbol id="up" viewBox="0 0 32 32"><path style="fill:currentColor" d="M0 16c0 8.837 7.163 16 16 16s16-7.163 16-16S24.837 0 16 0 0 7.163 0 16zm29 0c0 7.18-5.82 13-13 13S3 23.18 3 16 8.82 3 16 3s13 5.82 13 13z"/><path style="fill:currentColor" d="m22.086 20.914 2.829-2.829-8.914-8.914-8.914 8.914 2.828 2.828 6.086-6.086z"/></symbol><symbol id="icon-sun" viewBox="0 0 32 32"><path d="M16 26a2 2 0 0 1 2 2v2a2 2 0 1 1-4 0v-2a2 2 0 0 1 2-2zm0-20a2 2 0 0 1-2-2V2a2 2 0 1 1 4 0v2a2 2 0 0 1-2 2zm14 8a2 2 0 1 1 0 4h-2a2 2 0 1 1 0-4h2zM6 16a2 2 0 0 1-2 2H2a2 2 0 1 1 0-4h2a2 2 0 0 1 2 2zm19.899 7.071 1.414 1.414a2 2 0 1 1-2.828 2.828l-1.414-1.414a2 2 0 1 1 2.828-2.828zM6.101 8.929 4.687 7.515a2 2 0 1 1 2.828-2.828l1.414 1.414a2 2 0 1 1-2.828 2.828zm19.798 0a2 2 0 1 1-2.828-2.828l1.414-1.414a2 2 0 1 1 2.828 2.828l-1.414 1.414zM6.101 23.071a2 2 0 1 1 2.828 2.828l-1.414 1.414a2 2 0 1 1-2.828-2.828l1.414-1.414zM16 8a8 8 0 1 0 0 16 8 8 0 0 0 0-16zm0 13a5 5 0 1 1 .001-10.001A5 5 0 0 1 16 21z"/></symbol><symbol id="icon-moon" viewBox="0 0 32 32"><path fill="#a5a5a4" style="fill:var(--color1,#a5a5a4)" d="M16.571 16c0-6.81 4.278-12.635 10.286-14.941A15.902 15.902 0 0 0 21.143 0c-8.822 0-16 7.178-16 16s7.178 16 16 16c2.013 0 3.938-.377 5.714-1.059C20.849 28.635 16.571 22.81 16.571 16z"/></symbol><symbol id="icon-autorization-check" viewBox="0 0 32 32"><path d="M16 0C7.164 0 0 7.164 0 16s7.164 16 16 16 16-7.164 16-16S24.836 0 16 0zm-2.48 23.383L6.158 16.02l2.828-2.828 4.533 4.535 9.617-9.617 2.828 2.828L13.52 23.383z"/></symbol><symbol id="icon-exit" viewBox="0 0 64 64"><path d="M48 40v-8H28v-8h20v-8l12 12zm-4-4v16H24v12L0 52V0h44v20h-4V4H8l16 8v36h16V36z"/></symbol><symbol id="icon-key" viewBox="0 0 32 32"><path d="M17.034 13.368 4.318 26.104a1.107 1.107 0 0 0-.002 1.559l.018.019a1.09 1.09 0 0 0 1.553.003l2.65-2.648L11 27.5l1.5-1.5-2.463-2.463 3.001-2.999L15 22.5l1.5-1.5-1.962-1.962 4.082-4.08a6 6 0 1 0-1.586-1.59zM13 22l-1.5 1.5L14 26l-3 3-2.5-2.5-1.875 1.875a2.152 2.152 0 0 1-3.042.007l.035.035a2.152 2.152 0 0 1 .007-3.042l12.157-12.157a7 7 0 1 1 3 3L16 19l2 2-3 3-2-2zm9-8a4 4 0 1 1 0-8 4 4 0 0 1 0 8zm0-1a3 3 0 1 0 0-6 3 3 0 0 0 0 6z"/></symbol><symbol id="icon-mail" viewBox="0 0 32 32"><path d="M5.315 9.274 13.05 16l-7.737 6.728A1.008 1.008 0 0 1 5 21.993V10.007c0-.289.121-.549.315-.733zm22.372-.002c.194.184.313.445.313.735v11.986c0 .289-.121.549-.315.733L19.95 16l7.737-6.728zm-8.485 7.379L26.5 23h-20l7.298-6.349L16.5 19l2.702-2.349zM6.004 8A2 2 0 0 0 4 9.994v12.012C4 23.107 4.89 24 6.004 24h20.993a2 2 0 0 0 2.004-1.994V9.994c0-1.101-.89-1.994-2.004-1.994H6.004zM16.5 17.7 6.5 9h20l-10 8.7z"/></symbol><symbol id="icon-user" viewBox="0 0 36 32"><path d="M.5 31.983a.503.503 0 0 0 .612-.354c1.03-3.843 5.216-4.839 7.718-5.435.627-.149 1.122-.267 1.444-.406 2.85-1.237 3.779-3.227 4.057-4.679a.5.5 0 0 0-.165-.473c-1.484-1.281-2.736-3.204-3.526-5.416a.492.492 0 0 0-.103-.171c-1.045-1.136-1.645-2.337-1.645-3.294 0-.559.211-.934.686-1.217a.5.5 0 0 0 .243-.408C10.042 5.036 13.67 1.026 18.12 1l.107.007c4.472.062 8.077 4.158 8.206 9.324a.498.498 0 0 0 .178.369c.313.265.459.601.459 1.057 0 .801-.427 1.786-1.201 2.772a.522.522 0 0 0-.084.158c-.8 2.536-2.236 4.775-3.938 6.145a.502.502 0 0 0-.178.483c.278 1.451 1.207 3.44 4.057 4.679.337.146.86.26 1.523.403 2.477.536 6.622 1.435 7.639 5.232a.5.5 0 0 0 .966-.26c-1.175-4.387-5.871-5.404-8.393-5.95-.585-.127-1.09-.236-1.336-.344-1.86-.808-3.006-2.039-3.411-3.665 1.727-1.483 3.172-3.771 3.998-6.337.877-1.14 1.359-2.314 1.359-3.317 0-.669-.216-1.227-.644-1.663C27.189 4.489 23.19.076 18.227.005l-.149-.002c-4.873.026-8.889 4.323-9.24 9.83-.626.46-.944 1.105-.944 1.924 0 1.183.669 2.598 1.84 3.896.809 2.223 2.063 4.176 3.556 5.543-.403 1.632-1.55 2.867-3.414 3.676-.241.105-.721.22-1.277.352-2.541.604-7.269 1.729-8.453 6.147a.5.5 0 0 0 .354.612z"/></symbol></defs></svg>