<svg aria-hidden="true" style="width:0;height:0;position:absolute;overflow:hidden" xmlns="http://www.w3.org/2000/svg"><defs><symbol id="icon-close" viewBox="0 0 32 32"><path stroke-width="2.133" d="m8.533 8.533 14.933 14.933M8.533 23.467 23.466 8.534"/></symbol><symbol id="icon-arrow-left" viewBox="0 0 32 32"><path stroke-linejoin="round" stroke-linecap="round" stroke-width="2.667" d="M25.333 16H6.666M16 25.333 6.667 16 16 6.667"/></symbol><symbol id="icon-arrow-right" viewBox="0 0 32 32"><path stroke-linejoin="round" stroke-linecap="round" stroke-width="2.667" d="M6.667 16h18.667M16 25.333 25.333 16 16 6.667"/></symbol><symbol id="icon-film-logo" viewBox="0 0 32 32"><path stroke-linejoin="round" stroke-linecap="round" stroke-width="2.667" d="M26.427 3.606H5.574c-1.605 0-2.907 1.239-2.907 2.768V26.23c0 1.529 1.301 2.768 2.907 2.768h20.853c1.605 0 2.907-1.239 2.907-2.768V6.374c0-1.529-1.301-2.768-2.907-2.768zM9.333 3.606v25.391M22.667 3.606v25.391M2.667 16.301h26.667M2.667 9.954h6.667M2.667 22.649h6.667M22.667 22.649h6.667M22.667 9.954h6.667"/></symbol><symbol id="icon-heart" viewBox="0 0 34 32"><path d="m17.231 31.705-2.412-2.412C5.859 21.367.001 16.025.001 9.478.001 4.136 4.136.001 9.478.001c2.929 0 5.858 1.378 7.754 3.618 1.895-2.24 4.825-3.618 7.754-3.618 5.342 0 9.477 4.135 9.477 9.477 0 6.548-5.858 11.889-14.818 19.815l-2.412 2.412z"/></symbol><symbol id="icon-moon" viewBox="0 0 23 28"><path d="M19.719 20.359c-.562.094-1.141.141-1.719.141-5.797 0-10.5-4.703-10.5-10.5 0-1.984.578-3.922 1.625-5.578A9.952 9.952 0 0 0 2 14c0 5.516 4.484 10 10 10 3.016 0 5.844-1.375 7.719-3.641zm3.172-1.328A12.035 12.035 0 0 1 12 26C5.391 26 0 20.609 0 14A11.95 11.95 0 0 1 11.547 2.016a.976.976 0 0 1 .953.609c.172.391.063.844-.234 1.125A8.372 8.372 0 0 0 9.5 10c0 4.688 3.813 8.5 8.5 8.5a8.352 8.352 0 0 0 3.563-.797 1 1 0 0 1 1.328 1.328z"/></symbol><symbol id="icon-sun" viewBox="0 0 28 28"><path d="M23 14c0-4.969-4.031-9-9-9s-9 4.031-9 9 4.031 9 9 9 9-4.031 9-9zm4.312 4.328a.482.482 0 0 1-.313.313l-4.562 1.5v4.781a.517.517 0 0 1-.203.406.475.475 0 0 1-.453.063l-4.562-1.469-2.812 3.875c-.094.125-.25.203-.406.203s-.313-.078-.406-.203l-2.812-3.875-4.562 1.469a.472.472 0 0 1-.453-.063.518.518 0 0 1-.203-.406v-4.781l-4.562-1.5c-.141-.047-.266-.156-.313-.313s-.031-.328.063-.453L3.565 14 .753 10.125C.659 9.984.644 9.828.69 9.672s.172-.266.313-.313l4.562-1.5V3.078c0-.156.078-.313.203-.406a.475.475 0 0 1 .453-.063l4.562 1.469L13.595.203c.187-.25.625-.25.812 0l2.812 3.875 4.562-1.469a.472.472 0 0 1 .453.063c.125.094.203.25.203.406v4.781l4.562 1.5c.141.047.266.156.313.313s.031.313-.063.453L24.437 14l2.812 3.875a.514.514 0 0 1 .063.453z"/></symbol></defs></svg>